<svg width="79" height="79" fill="none" xmlns="http://www.w3.org/2000/svg"><g clip-path="url(#clip0)" stroke="#2468FF" stroke-width="2"><path d="M58.431 47.063c0-4.593-3.718-8.317-8.303-8.317h-9.062L39.81 22.465a2.848 2.848 0 00-5.686.22l.025 32.695-5.78-5.061a6.131 6.131 0 00-7.9-.154s10.13 12.38 17.376 15.814" stroke-linecap="round" stroke-linejoin="round"/><path d="M27.418 28.067v-8.879a5.459 5.459 0 015.454-5.462h8.181a5.456 5.456 0 015.453 5.462v8.879" stroke-linecap="round" stroke-linejoin="round"/><path d="M52.988.963H26.012C12.178.963.963 12.178.963 26.013v26.975c0 13.834 11.215 25.049 25.05 25.049h26.975c13.834 0 25.049-11.215 25.049-25.05V26.013c0-13.834-11.215-25.049-25.05-25.049z"/></g><defs><clipPath id="clip0"><path fill="#fff" d="M0 0h79v79H0z"/></clipPath></defs></svg>