<svg width="36" height="36" fill="none" xmlns="http://www.w3.org/2000/svg"><g clip-path="url(#clip0)"><path d="M1.382 25.096V.866H26.44c.703 0 1.322.662 1.52 1.626l2.021 12.143 3.743 1.95c.503.399.816 1.157.816 1.98v6.531m-16.58 0V5.481M31.044 29.71h4.285m-22.558 0h10.38m-22.559 0h4.284" stroke="#231F20" stroke-width="1.25" stroke-linecap="round" stroke-linejoin="round"/><path clip-rule="evenodd" d="M12.772 29.711c0 3.186-1.767 5.769-3.947 5.769s-3.948-2.583-3.948-5.769 1.768-5.769 3.948-5.769c2.18 0 3.947 2.583 3.947 5.769z" stroke="#231F20" stroke-width="1.25" stroke-linecap="round" stroke-linejoin="round"/><path fill-rule="evenodd" clip-rule="evenodd" d="M10.305 29.711c0 1.195-.663 2.164-1.48 2.164s-1.48-.97-1.48-2.164c0-1.194.663-2.163 1.48-2.163s1.48.97 1.48 2.163z" fill="#231F20"/><path clip-rule="evenodd" d="M31.044 29.711c0 3.186-1.768 5.769-3.947 5.769-2.18 0-3.948-2.583-3.948-5.769s1.768-5.769 3.948-5.769c2.18 0 3.947 2.583 3.947 5.769z" stroke="#231F20" stroke-width="1.25" stroke-linecap="round" stroke-linejoin="round"/><path fill-rule="evenodd" clip-rule="evenodd" d="M28.577 29.711c0 1.195-.663 2.164-1.48 2.164s-1.48-.97-1.48-2.164c0-1.194.663-2.163 1.48-2.163s1.48.97 1.48 2.163z" fill="#231F20"/><path d="M29.982 14.634h-7.663V5.48h6.139" stroke="#231F20" stroke-width="1.25" stroke-linecap="round" stroke-linejoin="round"/></g><defs><clipPath id="clip0"><path fill="#fff" d="M0 0h36v36H0z"/></clipPath></defs></svg>