<svg width="79" height="79" fill="none" xmlns="http://www.w3.org/2000/svg"><g clip-path="url(#clip0)" stroke="#2468FF" stroke-width="2"><path d="M52.988.963H26.012C12.178.963.963 12.178.963 26.013v26.975c0 13.834 11.215 25.049 25.05 25.049h26.975c13.834 0 25.049-11.215 25.049-25.05V26.013c0-13.834-11.215-25.049-25.05-25.049z"/><path d="M22.152 35.698v-4.77c0-5.375 4.027-9.733 8.993-9.733h16.47c4.966 0 8.992 4.358 8.992 9.734v4.769m-34.455 4.143v8.914c0 5.375 4.027 9.733 8.993 9.733h16.47c4.966 0 8.992-4.358 8.992-9.733V39.84" stroke-linecap="round" stroke-linejoin="round"/><path d="M26.509 30.982L22.152 35.7l-4.357-4.717m34.457 13.573l4.356-4.714 4.357 4.714" stroke-linecap="round" stroke-linejoin="round"/></g><defs><clipPath id="clip0"><path fill="#fff" d="M0 0h79v79H0z"/></clipPath></defs></svg>