<svg width="79" height="79" fill="none" xmlns="http://www.w3.org/2000/svg"><g clip-path="url(#clip0)" stroke="#2468FF" stroke-width="2"><path d="M30.807 38.199l5.747 5.732L48.44 32.074" stroke-linecap="round" stroke-linejoin="round"/><path clip-rule="evenodd" d="M40.836 65.946C45.532 63.354 62.282 52.038 62.94 22.2c.023-1.08-.653-2.084-1.676-2.438-6.353-2.189-13.742-3.455-21.644-3.455h.008c-7.9 0-15.29 1.267-21.643 3.455-1.024.354-1.7 1.359-1.676 2.438.659 29.837 17.409 41.153 22.102 43.744a2.49 2.49 0 002.426 0h0z" stroke-linecap="round" stroke-linejoin="round"/><path d="M52.988.963H26.012C12.178.963.963 12.178.963 26.013v26.975c0 13.834 11.215 25.049 25.05 25.049h26.975c13.834 0 25.049-11.215 25.049-25.05V26.013c0-13.834-11.215-25.049-25.05-25.049z"/></g><defs><clipPath id="clip0"><path fill="#fff" d="M0 0h79v79H0z"/></clipPath></defs></svg>