<svg width="36" height="36" fill="none" xmlns="http://www.w3.org/2000/svg"><g clip-path="url(#clip0)" stroke="#231F20" stroke-width="1.25" stroke-linecap="round" stroke-linejoin="round"><path clip-rule="evenodd" d="M23.175 5.807a5.215 5.215 0 11-10.43-.001 5.215 5.215 0 0110.43 0z"/><path d="M.592 35.074H35.33m-8.965-3.157V25.35c0-.959-.778-1.737-1.737-1.737H11.292c-.959 0-1.736.778-1.736 1.737v6.566"/><path d="M31.122 31.88a3.924 3.924 0 00.683-4.012l-3.046-7.705a6.948 6.948 0 00-6.46-4.393h-8.676a6.948 6.948 0 00-6.461 4.393l-3.047 7.705a3.924 3.924 0 00.684 4.013"/></g><defs><clipPath id="clip0"><path fill="#fff" d="M0 0h36v36H0z"/></clipPath></defs></svg>